<svg width="20" height="20" viewBox="0 0 20 20" fill="none" xmlns="http://www.w3.org/2000/svg">
<path d="M18.8889 13.8889C17.5556 13.8889 16.1111 13.6667 14.8889 13.2222H14.5556C14.2222 13.2222 14 13.3333 13.7778 13.5556L11.3333 16C8.22222 14.3333 5.55556 11.7778 4 8.66667L6.44445 6.22222C6.77778 5.88889 6.88889 5.44444 6.66667 5.11111C6.33333 3.88889 6.11111 2.44444 6.11111 1.11111C6.11111 0.555556 5.55556 0 5 0H1.11111C0.555556 0 0 0.555556 0 1.11111C0 11.5556 8.44445 20 18.8889 20C19.4444 20 20 19.4444 20 18.8889V15C20 14.4444 19.4444 13.8889 18.8889 13.8889ZM2.22222 2.22222H3.88889C4 3.22222 4.22222 4.22222 4.44444 5.11111L3.11111 6.44445C2.66667 5.11111 2.33333 3.66667 2.22222 2.22222ZM17.7778 17.7778C16.3333 17.6667 14.8889 17.3333 13.5556 16.8889L14.8889 15.5556C15.7778 15.7778 16.7778 16 17.7778 16V17.7778ZM13.3333 10H15.5556C15.5556 8.52658 14.9702 7.1135 13.9284 6.07163C12.8865 5.02976 11.4734 4.44444 10 4.44444V6.66667C10.8841 6.66667 11.7319 7.01786 12.357 7.64298C12.9821 8.2681 13.3333 9.11595 13.3333 10ZM17.7778 10H20C20 4.44444 15.5222 0 10 0V2.22222C14.2889 2.22222 17.7778 5.7 17.7778 10Z" fill="#078901"/>
</svg>
