<svg width="60" height="61" viewBox="0 0 60 61" fill="none" xmlns="http://www.w3.org/2000/svg">
<path d="M30 2.3316C45.3149 2.3316 57.7305 14.7471 57.7305 30.0621C57.7305 45.377 45.3149 57.7925 30 57.7925C14.6851 57.7925 2.26954 45.377 2.26954 30.0621C2.26954 14.7471 14.6851 2.3316 30 2.3316ZM30 0.0600586C21.9876 0.0600586 14.4531 3.18143 8.78624 8.8463C3.11938 14.5132 0 22.0457 0 30.0601C0 38.0745 3.12138 45.6069 8.78624 51.2738C14.4531 56.9407 21.9856 60.0601 30 60.0601C38.0144 60.0601 45.5469 56.9387 51.2138 51.2738C56.8806 45.6069 60 38.0745 60 30.0601C60 22.0457 56.8786 14.5132 51.2138 8.8463C45.5469 3.18143 38.0124 0.0600586 30 0.0600586Z" fill="#1A4DBC"/>
<path d="M31.9487 24.6052H26.9457H23.5283H22.6105C22.5025 24.6052 22.4266 24.7112 22.4586 24.8132C23.2164 27.2587 23.4903 29.6102 23.5283 31.6418V32.6716C23.4763 35.3471 23.0424 37.3107 22.8905 37.9186C22.8645 38.0205 22.9425 38.1165 23.0464 38.1165H23.5283H24.0762H32.2726C36.5117 38.1165 38.5933 35.4291 38.5933 31.3599C38.5933 27.2907 36.5857 24.6052 31.9487 24.6052ZM31.2868 35.543H27.3596C27.2716 35.543 27.1996 35.4711 27.1996 35.3831V27.3407C27.1996 27.2527 27.2716 27.1807 27.3596 27.1807H30.9449C33.7463 27.1807 34.8061 28.7324 34.8061 31.2299C34.8061 34.0873 33.7083 35.543 31.2868 35.543Z" fill="#078901"/>
<path d="M53.2298 35.5431H44.5256C44.4376 35.5431 44.3656 35.4711 44.3656 35.3831V32.4117C44.3656 32.3237 44.4376 32.2518 44.5256 32.2518H51.7541C51.8421 32.2518 51.9141 32.1798 51.9141 32.0918V29.9542C51.9141 29.8662 51.8421 29.7942 51.7541 29.7942H44.5256C44.4376 29.7942 44.3656 29.7223 44.3656 29.6343V27.3447C44.3656 27.2568 44.4376 27.1848 44.5256 27.1848H53.1559C53.2438 27.1848 53.3158 27.1128 53.3158 27.0248V24.7732C53.3158 24.6853 53.2438 24.6133 53.1559 24.6133H44.1117H39.7765C39.6686 24.6133 39.5926 24.7193 39.6246 24.8212C40.3724 27.2388 40.6504 29.5643 40.6924 31.5799V32.7237C40.6364 35.3751 40.2065 37.3207 40.0545 37.9266C40.0285 38.0286 40.1065 38.1246 40.2105 38.1246H40.6924H53.2298C53.3178 38.1246 53.3898 38.0526 53.3898 37.9646V35.7131C53.3898 35.6151 53.3178 35.5431 53.2298 35.5431Z" fill="#078901"/>
<path d="M13.3096 24.1172C20.6141 24.1172 21.7559 28.4543 21.7559 31.2898C21.7559 34.1252 20.6141 38.4623 13.3096 38.4623C6.00506 38.4623 4.86328 34.1252 4.86328 31.2898C4.86328 28.4543 6.00506 24.1172 13.3096 24.1172ZM13.3096 35.8748C16.6569 35.8748 17.8367 33.4013 17.8367 31.2898C17.8367 29.1782 16.6569 26.7047 13.3096 26.7047C9.96027 26.7047 8.7825 29.1782 8.7825 31.2898C8.7825 33.4013 9.96227 35.8748 13.3096 35.8748Z" fill="#078901"/>
</svg>
